{
  "accessors": [
    {
      "bufferView": 3,
      "componentType": 5126,
      "count": 6200,
      "max": [
        0.39046400785446167,
        1.068127989768982,
        0.30504798889160156
      ],
      "min": [
        -0.39046400785446167,
        0.2280460000038147,
        -0.9251360297203064
      ],
      "type": "VEC3"
    },
    {
      "bufferView": 3,
      "byteOffset": 74400,
      "componentType": 5126,
      "count": 6200,
      "max": [
        0.9999987483024597,
        1.0,
        1.0
      ],
      "min": [
        -0.999993085861206,
        -1.0,
        -0.999982476234436
      ],
      "type": "VEC3"
    },
    {
      "bufferView": 2,
      "componentType": 5126,
      "count": 6200,
      "max": [
        0.9995120167732239,
        0.9965019822120667
      ],
      "min": [
        -1.8339840173721313,
        -0.9189450144767761
      ],
      "type": "VEC2"
    },
    {
      "bufferView": 1,
      "componentType": 5125,
      "count": 23754,
      "type": "SCALAR"
    },
    {
      "bufferView": 3,
      "byteOffset": 148800,
      "componentType": 5126,
      "count": 3318,
      "max": [
        0.6602929830551147,
        0.8283550143241882,
        0.2587909996509552
      ],
      "min": [
        -0.6602929830551147,
        -0.010203000158071518,
        -0.1293189972639084
      ],
      "type": "VEC3"
    },
    {
      "bufferView": 3,
      "byteOffset": 188616,
      "componentType": 5126,
      "count": 3318,
      "max": [
        1.0,
        0.9999720454216003,
        0.9999005198478699
      ],
      "min": [
        -1.0,
        -0.999813973903656,
        -0.9999167323112488
      ],
      "type": "VEC3"
    },
    {
      "bufferView": 4,
      "componentType": 5126,
      "count": 3318,
      "max": [
        0.9999844431877136,
        0.9999201893806458,
        0.9999698400497437,
        1.0
      ],
      "min": [
        -0.9999844431877136,
        -0.9999790191650391,
        -0.9999852180480957,
        -1.0
      ],
      "type": "VEC4"
    },
    {
      "bufferView": 2,
      "byteOffset": 49600,
      "componentType": 5126,
      "count": 3318,
      "max": [
        1.0,
        0.9904940128326416
      ],
      "min": [
        0.0,
        0.007323999889194965
      ],
      "type": "VEC2"
    },
    {
      "bufferView": 1,
      "byteOffset": 95016,
      "componentType": 5125,
      "count": 10860,
      "type": "SCALAR"
    },
    {
      "bufferView": 5,
      "componentType": 5126,
      "count": 98,
      "max": [
        1.0,
        0.04288303852081299,
        0.0,
        0.0,
        1.9999999949504854e-06,
        1.0,
        4.951545520270884e-07,
        0.0,
        0.9528680443763733,
        0.16127298772335052,
        1.0,
        0.0,
        0.6039999723434448,
        0.0,
        0.6383090019226074,
        1.0
      ],
      "min": [
        -0.2610549032688141,
        -0.04415011778473854,
        -0.966418981552124,
        0.0,
        -0.16687701642513275,
        0.9859780073165894,
        -9.999999974752427e-07,
        0.0,
        0.0,
        0.0,
        -0.26476192474365234,
        0.0,
        -0.604000985622406,
        -0.9703879952430725,
        -0.20455099642276764,
        1.0
      ],
      "type": "MAT4"
    },
    {
      "bufferView": 0,
      "componentType": 5123,
      "count": 6200,
      "type": "VEC4"
    },
    {
      "bufferView": 4,
      "byteOffset": 53088,
      "componentType": 5126,
      "count": 6200,
      "max": [
        1.0,
        0.5,
        0.3123149871826172,
        0.0
      ],
      "min": [
        0.3596140146255493,
        0.0,
        0.0,
        0.0
      ],
      "type": "VEC4"
    },
    {
      "bufferView": 0,
      "byteOffset": 49600,
      "componentType": 5123,
      "count": 3318,
      "type": "VEC4"
    },
    {
      "bufferView": 4,
      "byteOffset": 152288,
      "componentType": 5126,
      "count": 3318,
      "max": [
        1.0,
        0.5,
        0.27124470472335815,
        0.0
      ],
      "min": [
        0.3894355893135071,
        0.0,
        0.0,
        0.0
      ],
      "type": "VEC4"
    }
  ],
  "asset": {
    "extras": {
      "author": "lavareefescape (https://sketchfab.com/lavareefescape)",
      "license": "CC-BY-4.0 (http://creativecommons.org/licenses/by/4.0/)",
      "source": "https://sketchfab.com/3d-models/tails-sonic-free-riders-020f9fe6bb3243989004f1e3d5e45440",
      "title": "Tails - Sonic Free Riders"
    },
    "generator": "Sketchfab-15.43.0",
    "version": "2.0"
  },
  "bufferViews": [
    {
      "buffer": 0,
      "byteLength": 76144,
      "byteStride": 8,
      "name": "shortBufferViews",
      "target": 34962
    },
    {
      "buffer": 0,
      "byteLength": 138456,
      "byteOffset": 76144,
      "name": "floatBufferViews",
      "target": 34963
    },
    {
      "buffer": 0,
      "byteLength": 76144,
      "byteOffset": 214600,
      "byteStride": 8,
      "name": "floatBufferViews",
      "target": 34962
    },
    {
      "buffer": 0,
      "byteLength": 228432,
      "byteOffset": 290744,
      "byteStride": 12,
      "name": "floatBufferViews",
      "target": 34962
    },
    {
      "buffer": 0,
      "byteLength": 205376,
      "byteOffset": 519176,
      "byteStride": 16,
      "name": "floatBufferViews",
      "target": 34962
    },
    {
      "buffer": 0,
      "byteLength": 6272,
      "byteOffset": 724552,
      "name": "floatBufferViews"
    }
  ],
  "buffers": [
    {
      "byteLength": 730824,
      "uri": "scene.bin"
    }
  ],
  "images": [
    {
      "uri": "textures/tal_body_baseColor.png"
    },
    {
      "uri": "textures/tal_hand_baseColor.png"
    },
    {
      "uri": "textures/tal_hand_normal.png"
    }
  ],
  "materials": [
    {
      "doubleSided": true,
      "name": "tal_body",
      "pbrMetallicRoughness": {
        "baseColorTexture": {
          "index": 0
        },
        "metallicFactor": 0.0
      }
    },
    {
      "doubleSided": true,
      "name": "tal_hand",
      "normalTexture": {
        "index": 2
      },
      "pbrMetallicRoughness": {
        "baseColorTexture": {
          "index": 1
        },
        "metallicFactor": 0.0
      }
    }
  ],
  "meshes": [
    {
      "name": "Mesh1_tal_body_0",
      "primitives": [
        {
          "attributes": {
            "JOINTS_0": 10,
            "NORMAL": 1,
            "POSITION": 0,
            "TEXCOORD_0": 2,
            "WEIGHTS_0": 11
          },
          "indices": 3,
          "material": 0,
          "mode": 4
        }
      ]
    },
    {
      "name": "Mesh1_tal_hand_0",
      "primitives": [
        {
          "attributes": {
            "JOINTS_0": 12,
            "NORMAL": 5,
            "POSITION": 4,
            "TANGENT": 6,
            "TEXCOORD_0": 7,
            "WEIGHTS_0": 13
          },
          "indices": 8,
          "material": 1,
          "mode": 4
        }
      ]
    }
  ],
  "nodes": [
    {
      "children": [
        1
      ],
      "matrix": [
        1.0,
        0.0,
        0.0,
        0.0,
        0.0,
        2.220446049250313e-16,
        -1.0,
        0.0,
        0.0,
        1.0,
        2.220446049250313e-16,
        0.0,
        0.0,
        0.0,
        0.0,
        1.0
      ],
      "name": "Sketchfab_model"
    },
    {
      "children": [
        2
      ],
      "matrix": [
        0.009999999776482582,
        0.0,
        0.0,
        0.0,
        0.0,
        0.0,
        0.009999999776482582,
        0.0,
        0.0,
        -0.009999999776482582,
        0.0,
        0.0,
        0.0,
        0.0,
        0.0,
        1.0
      ],
      "name": "Miles Tails Prower.fbx"
    },
    {
      "children": [
        3
      ],
      "name": "RootNode"
    },
    {
      "children": [
        4,
        5,
        6
      ],
      "name": "Object_3"
    },
    {
      "children": [
        7,
        76,
        77,
        78,
        79,
        80,
        81,
        82,
        83,
        84,
        85,
        86,
        87,
        88,
        89,
        90,
        91,
        92,
        93,
        94,
        95,
        96,
        97,
        98,
        99,
        100,
        101,
        102,
        103
      ],
      "name": "_rootJoint"
    },
    {
      "mesh": 0,
      "name": "Object_5",
      "skin": 0
    },
    {
      "mesh": 1,
      "name": "Object_6",
      "skin": 0
    },
    {
      "children": [
        8,
        75
      ],
      "name": "Bone001_035"
    },
    {
      "children": [
        9
      ],
      "name": "Bone002_037"
    },
    {
      "children": [
        10,
        61,
        65,
        69,
        72
      ],
      "name": "Bone003_036",
      "translation": [
        0.0,
        0.4779999852180481,
        0.0
      ]
    },
    {
      "children": [
        11
      ],
      "name": "Bone004_038",
      "translation": [
        0.0,
        0.03400000184774399,
        0.0
      ]
    },
    {
      "children": [
        12,
        23,
        42
      ],
      "name": "Bone005_039",
      "translation": [
        0.0,
        0.05299999937415123,
        0.0
      ]
    },
    {
      "children": [
        13
      ],
      "name": "Bone006_040",
      "translation": [
        0.0,
        0.08027099817991257,
        0.0
      ]
    },
    {
      "children": [
        14,
        16,
        17,
        18,
        19,
        20,
        21,
        22
      ],
      "name": "Bone007_041",
      "translation": [
        0.0,
        0.01667499914765358,
        0.0
      ]
    },
    {
      "children": [
        15
      ],
      "name": "Bone008_042",
      "translation": [
        0.0,
        0.2672730088233948,
        0.11381100118160248
      ]
    },
    {
      "name": "Bone009_043",
      "translation": [
        0.0,
        0.041168998926877975,
        0.09073899686336517
      ]
    },
    {
      "name": "Bone010_044",
      "translation": [
        0.0,
        0.010999999940395355,
        0.0
      ]
    },
    {
      "name": "Bone011_045",
      "translation": [
        0.0,
        0.0006539999740198255,
        0.0
      ]
    },
    {
      "name": "Bone012_046",
      "translation": [
        0.0,
        0.0006539999740198255,
        0.0
      ]
    },
    {
      "name": "Bone013_047",
      "translation": [
        0.0,
        0.0006539999740198255,
        0.0
      ]
    },
    {
      "name": "Bone014_048",
      "rotation": [
        0.06653749197721481,
        -0.7924354076385498,
        -0.05073138698935509,
        0.6041896939277649
      ],
      "scale": [
        0.9999994039535522,
        0.9999998211860657,
        1.000000238418579
      ],
      "translation": [
        -0.03640799969434738,
        0.1220339983701706,
        0.10662700235843658
      ]
    },
    {
      "name": "Bone015_049",
      "rotation": [
        0.05103665590286255,
        -0.6073793172836304,
        -0.06638067215681076,
        0.7899868488311768
      ],
      "scale": [
        1.0000003576278687,
        1.000000238418579,
        0.9999998807907104
      ],
      "translation": [
        0.03697900101542473,
        0.12198200076818466,
        0.10685499757528305
      ]
    },
    {
      "name": "Bone016_050",
      "translation": [
        0.0,
        0.14305399358272552,
        -0.07699999958276749
      ]
    },
    {
      "children": [
        24
      ],
      "name": "Bone017_051",
      "translation": [
        0.054999999701976776,
        0.06471399962902069,
        0.0
      ]
    },
    {
      "children": [
        25
      ],
      "name": "Bone018_052",
      "translation": [
        0.020999999716877937,
        0.0,
        0.0
      ]
    },
    {
      "children": [
        26
      ],
      "name": "Bone019_053",
      "translation": [
        0.10300000011920929,
        0.0,
        -0.003438000101596117
      ]
    },
    {
      "children": [
        27,
        30,
        33,
        36,
        39
      ],
      "name": "Bone020_054",
      "translation": [
        0.18299999833106995,
        0.0,
        0.0009120000177063048
      ]
    },
    {
      "children": [
        28
      ],
      "name": "Bone021_055",
      "translation": [
        0.035999998450279236,
        -0.017000000923871994,
        0.032999999821186066
      ]
    },
    {
      "children": [
        29
      ],
      "name": "Bone022_056",
      "translation": [
        0.03700000047683716,
        -0.014000000432133675,
        0.02800000086426735
      ]
    },
    {
      "name": "Bone023_019",
      "translation": [
        0.041999999433755875,
        -0.01600000075995922,
        0.028999999165534973
      ]
    },
    {
      "children": [
        31
      ],
      "name": "Bone024_020",
      "translation": [
        0.15399999916553497,
        0.02800000086426735,
        0.039000000804662704
      ]
    },
    {
      "children": [
        32
      ],
      "name": "Bone025_021",
      "translation": [
        0.0430000014603138,
        0.0,
        0.013000000268220901
      ]
    },
    {
      "name": "Bone026_022",
      "translation": [
        0.027000000700354576,
        -0.004000000189989805,
        0.00800000037997961
      ]
    },
    {
      "children": [
        34
      ],
      "name": "Bone027_023",
      "rotation": [
        0.0,
        0.0,
        9.999999974752427e-07,
        1.0
      ],
      "translation": [
        0.15700000524520874,
        0.02800000086426735,
        0.003000000026077032
      ]
    },
    {
      "children": [
        35
      ],
      "name": "Bone028_024",
      "translation": [
        0.052000001072883606,
        -1.1102230246251565e-16,
        0.0010000000474974513
      ]
    },
    {
      "name": "Bone029_025",
      "translation": [
        0.032999999821186066,
        -0.004000000189989805,
        0.0010000000474974513
      ]
    },
    {
      "children": [
        37
      ],
      "name": "Bone030_026",
      "translation": [
        0.15600000321865082,
        0.02800000086426735,
        -0.035999998450279236
      ]
    },
    {
      "children": [
        38
      ],
      "name": "Bone031_028",
      "translation": [
        0.04899999871850014,
        0.0,
        -0.008999999612569809
      ]
    },
    {
      "name": "Bone032_029",
      "translation": [
        0.027000000700354576,
        -0.004000000189989805,
        -0.004999999888241291
      ]
    },
    {
      "children": [
        40
      ],
      "name": "Bone033_030",
      "translation": [
        0.14399999380111694,
        0.02800000086426735,
        -0.0729999989271164
      ]
    },
    {
      "children": [
        41
      ],
      "name": "Bone034_031",
      "translation": [
        0.03929800167679787,
        0.0,
        -0.014000000432133675
      ]
    },
    {
      "name": "Bone035_032",
      "translation": [
        0.028999999165534973,
        -0.006000000052154064,
        -0.009999999776482582
      ]
    },
    {
      "children": [
        43
      ],
      "name": "Bone036_033",
      "translation": [
        -0.054999999701976776,
        0.06476700305938721,
        0.0
      ]
    },
    {
      "children": [
        44
      ],
      "name": "Bone037_034",
      "translation": [
        -0.020999999716877937,
        0.0,
        0.0
      ]
    },
    {
      "children": [
        45
      ],
      "name": "Bone038_00",
      "translation": [
        -0.10300000011920929,
        0.0,
        -0.003000000026077032
      ]
    },
    {
      "children": [
        46,
        49,
        52,
        55,
        58
      ],
      "name": "Bone039_01",
      "translation": [
        -0.18299999833106995,
        0.0,
        0.0010000000474974513
      ]
    },
    {
      "children": [
        47
      ],
      "name": "Bone040_02",
      "translation": [
        -0.035999998450279236,
        -0.017000000923871994,
        0.032999999821186066
      ]
    },
    {
      "children": [
        48
      ],
      "name": "Bone041_03",
      "translation": [
        -0.03700000047683716,
        -0.014000000432133675,
        0.02800000086426735
      ]
    },
    {
      "name": "Bone042_04",
      "translation": [
        -0.041999999433755875,
        -0.01600000075995922,
        0.028999999165534973
      ]
    },
    {
      "children": [
        50
      ],
      "name": "Bone043_05",
      "translation": [
        -0.15399999916553497,
        0.02800000086426735,
        0.039000000804662704
      ]
    },
    {
      "children": [
        51
      ],
      "name": "Bone044_06",
      "rotation": [
        4.999999987376214e-07,
        4.999999980020986e-13,
        9.999999974752427e-07,
        1.0
      ],
      "translation": [
        -0.0430000014603138,
        0.0,
        0.013000000268220901
      ]
    },
    {
      "name": "Bone045_07",
      "rotation": [
        1.0587911840678754e-22,
        0.0,
        0.0,
        1.0
      ],
      "translation": [
        -0.027000000700354576,
        -0.004000000189989805,
        0.00800000037997961
      ]
    },
    {
      "children": [
        53
      ],
      "name": "Bone046_08",
      "translation": [
        -0.15700000524520874,
        0.02800000086426735,
        0.003000000026077032
      ]
    },
    {
      "children": [
        54
      ],
      "name": "Bone047_09",
      "translation": [
        -0.052000001072883606,
        0.0,
        0.0010000000474974513
      ]
    },
    {
      "name": "Bone048_010",
      "translation": [
        -0.032999999821186066,
        -0.004000000189989805,
        0.0010000000474974513
      ]
    },
    {
      "children": [
        56
      ],
      "name": "Bone049_011",
      "translation": [
        -0.15600000321865082,
        0.02800000086426735,
        -0.035999998450279236
      ]
    },
    {
      "children": [
        57
      ],
      "name": "Bone050_012",
      "translation": [
        -0.04899999871850014,
        0.0,
        -0.008999999612569809
      ]
    },
    {
      "name": "Bone051_013",
      "translation": [
        -0.027000000700354576,
        -0.004000000189989805,
        -0.004999999888241291
      ]
    },
    {
      "children": [
        59
      ],
      "name": "Bone052_014",
      "translation": [
        -0.14399999380111694,
        0.02800000086426735,
        -0.0729999989271164
      ]
    },
    {
      "children": [
        60
      ],
      "name": "Bone053_015",
      "translation": [
        -0.039000000804662704,
        0.0,
        -0.014000000432133675
      ]
    },
    {
      "name": "Bone054_016",
      "translation": [
        -0.028999999165534973,
        -0.006000000052154064,
        -0.009999999776482582
      ]
    },
    {
      "children": [
        62
      ],
      "name": "Bone055_017",
      "translation": [
        0.05000000074505806,
        -0.035999998450279236,
        0.0
      ]
    },
    {
      "children": [
        63
      ],
      "name": "Bone056_018",
      "translation": [
        0.028999999165534973,
        -0.10899999737739563,
        0.0020000000949949026
      ]
    },
    {
      "children": [
        64
      ],
      "name": "Bone057_057",
      "translation": [
        0.03700000047683716,
        -0.13500000536441803,
        -0.01600000075995922
      ]
    },
    {
      "name": "Bone058_058",
      "translation": [
        0.039000000804662704,
        -0.16200000047683716,
        0.15600000321865082
      ]
    },
    {
      "children": [
        66
      ],
      "name": "Bone059_059",
      "translation": [
        -0.05000000074505806,
        -0.035999998450279236,
        0.0
      ]
    },
    {
      "children": [
        67
      ],
      "name": "Bone060_060",
      "translation": [
        -0.028999999165534973,
        -0.10899999737739563,
        0.0020000000949949026
      ]
    },
    {
      "children": [
        68
      ],
      "name": "Bone061_061",
      "translation": [
        -0.03700000047683716,
        -0.13500000536441803,
        -0.01600000075995922
      ]
    },
    {
      "name": "Bone062_062",
      "translation": [
        -0.039000000804662704,
        -0.16200000047683716,
        0.15600000321865082
      ]
    },
    {
      "children": [
        70
      ],
      "name": "Bone063_027",
      "translation": [
        0.0185100007802248,
        0.014831000007689,
        -0.09903000295162201
      ]
    },
    {
      "children": [
        71
      ],
      "name": "Bone064_063",
      "translation": [
        0.09198100119829178,
        -0.0009759999811649323,
        -0.25825899839401245
      ]
    },
    {
      "name": "Bone065_064",
      "translation": [
        0.11236599832773209,
        0.0,
        -0.28101998567581177
      ]
    },
    {
      "children": [
        73
      ],
      "name": "Bone066_065",
      "translation": [
        -0.01899999938905239,
        0.014831000007689,
        -0.09903000295162201
      ]
    },
    {
      "children": [
        74
      ],
      "name": "Bone067_066",
      "translation": [
        -0.09200000017881393,
        -0.0009759999811649323,
        -0.25825899839401245
      ]
    },
    {
      "name": "Bone068_067",
      "translation": [
        -0.1120000034570694,
        0.0,
        -0.28101998567581177
      ]
    },
    {
      "name": "Bone069_068"
    },
    {
      "name": "_14_069"
    },
    {
      "name": "_14_070"
    },
    {
      "name": "_14_071"
    },
    {
      "name": "_14_072"
    },
    {
      "name": "_14_073"
    },
    {
      "name": "_14_074"
    },
    {
      "name": "_14_075"
    },
    {
      "name": "_1c_076"
    },
    {
      "name": "_1c_077"
    },
    {
      "name": "_24_078"
    },
    {
      "name": "_24_079"
    },
    {
      "name": "_24_080"
    },
    {
      "name": "_24_081"
    },
    {
      "name": "_24_082"
    },
    {
      "name": "_24_083"
    },
    {
      "name": "_24_084"
    },
    {
      "name": "_24_085"
    },
    {
      "name": "_24_086"
    },
    {
      "name": "_2c_087"
    },
    {
      "name": "_2c_088"
    },
    {
      "name": "_2c_089"
    },
    {
      "name": "_2c_090"
    },
    {
      "name": "_2c_091"
    },
    {
      "name": "_2c_092"
    },
    {
      "name": "_2c_093"
    },
    {
      "name": "_2c_094"
    },
    {
      "name": "_2c_095"
    },
    {
      "name": "_14_096"
    }
  ],
  "samplers": [
    {
      "magFilter": 9729,
      "minFilter": 9987,
      "wrapS": 10497,
      "wrapT": 10497
    }
  ],
  "scene": 0,
  "scenes": [
    {
      "name": "Sketchfab_Scene",
      "nodes": [
        0
      ]
    }
  ],
  "skins": [
    {
      "inverseBindMatrices": 9,
      "joints": [
        4,
        7,
        8,
        9,
        10,
        11,
        12,
        13,
        14,
        15,
        16,
        17,
        18,
        19,
        20,
        21,
        22,
        23,
        24,
        25,
        26,
        27,
        28,
        29,
        30,
        31,
        32,
        33,
        34,
        35,
        36,
        37,
        38,
        39,
        40,
        41,
        42,
        43,
        44,
        45,
        46,
        47,
        48,
        49,
        50,
        51,
        52,
        53,
        54,
        55,
        56,
        57,
        58,
        59,
        60,
        61,
        62,
        63,
        64,
        65,
        66,
        67,
        68,
        69,
        70,
        71,
        72,
        73,
        74,
        75,
        76,
        77,
        78,
        79,
        80,
        81,
        82,
        83,
        84,
        85,
        86,
        87,
        88,
        89,
        90,
        91,
        92,
        93,
        94,
        95,
        96,
        97,
        98,
        99,
        100,
        101,
        102,
        103
      ],
      "skeleton": 4
    }
  ],
  "textures": [
    {
      "sampler": 0,
      "source": 0
    },
    {
      "sampler": 0,
      "source": 1
    },
    {
      "sampler": 0,
      "source": 2
    }
  ]
}
