{
  "accessors": [
    {
      "bufferView": 2,
      "componentType": 5126,
      "count": 1056,
      "max": [
        2.0410170555114746,
        2.8721070289611816,
        9.839136123657227
      ],
      "min": [
        -2.041032075881958,
        -2.4102931022644043,
        5.221323013305664
      ],
      "type": "VEC3"
    },
    {
      "bufferView": 2,
      "byteOffset": 12672,
      "componentType": 5126,
      "count": 1056,
      "max": [
        0.9993083477020264,
        0.9999969005584717,
        0.9983397722244263
      ],
      "min": [
        -0.9985954761505127,
        -0.9998853206634521,
        -0.9907764196395874
      ],
      "type": "VEC3"
    },
    {
      "bufferView": 1,
      "componentType": 5126,
      "count": 1056,
      "max": [
        1.0,
        1.0
      ],
      "min": [
        0.015599999576807022,
        0.011699999682605267
      ],
      "type": "VEC2"
    },
    {
      "bufferView": 1,
      "byteOffset": 8448,
      "componentType": 5126,
      "count": 1056,
      "max": [
        1.0,
        1.0
      ],
      "min": [
        0.015599999576807022,
        0.011699999682605267
      ],
      "type": "VEC2"
    },
    {
      "bufferView": 0,
      "componentType": 5125,
      "count": 2952,
      "type": "SCALAR"
    },
    {
      "bufferView": 2,
      "byteOffset": 25344,
      "componentType": 5126,
      "count": 1486,
      "max": [
        3.241084098815918,
        2.359402894973755,
        10.016321182250977
      ],
      "min": [
        -3.214340925216675,
        -1.8474019765853882,
        2.5303750038146973
      ],
      "type": "VEC3"
    },
    {
      "bufferView": 2,
      "byteOffset": 43176,
      "componentType": 5126,
      "count": 1486,
      "max": [
        0.9993804693222046,
        0.9959590435028076,
        0.9989675283432007
      ],
      "min": [
        -0.9991787672042847,
        -0.9999691247940063,
        -0.9999427795410156
      ],
      "type": "VEC3"
    },
    {
      "bufferView": 1,
      "byteOffset": 16896,
      "componentType": 5126,
      "count": 1486,
      "max": [
        0.9883000254631042,
        1.0
      ],
      "min": [
        0.0,
        0.007799999788403511
      ],
      "type": "VEC2"
    },
    {
      "bufferView": 1,
      "byteOffset": 28784,
      "componentType": 5126,
      "count": 1486,
      "max": [
        0.9883000254631042,
        1.0
      ],
      "min": [
        0.0,
        0.007799999788403511
      ],
      "type": "VEC2"
    },
    {
      "bufferView": 0,
      "byteOffset": 11808,
      "componentType": 5125,
      "count": 3894,
      "type": "SCALAR"
    },
    {
      "bufferView": 2,
      "byteOffset": 61008,
      "componentType": 5126,
      "count": 471,
      "max": [
        1.8008489608764648,
        1.6707359552383423,
        2.797866106033325
      ],
      "min": [
        -1.673980951309204,
        -2.245349884033203,
        -0.16968800127506256
      ],
      "type": "VEC3"
    },
    {
      "bufferView": 2,
      "byteOffset": 66660,
      "componentType": 5126,
      "count": 471,
      "max": [
        0.999958872795105,
        0.9998200535774231,
        0.9908387660980225
      ],
      "min": [
        -0.9999330043792725,
        -0.999817430973053,
        -0.99845951795578
      ],
      "type": "VEC3"
    },
    {
      "bufferView": 1,
      "byteOffset": 40672,
      "componentType": 5126,
      "count": 471,
      "max": [
        1.0,
        0.9883000254631042
      ],
      "min": [
        0.0,
        0.0038999998942017555
      ],
      "type": "VEC2"
    },
    {
      "bufferView": 1,
      "byteOffset": 44440,
      "componentType": 5126,
      "count": 471,
      "max": [
        1.0,
        0.9883000254631042
      ],
      "min": [
        0.0,
        0.0038999998942017555
      ],
      "type": "VEC2"
    },
    {
      "bufferView": 0,
      "byteOffset": 27384,
      "componentType": 5125,
      "count": 1104,
      "type": "SCALAR"
    },
    {
      "bufferView": 2,
      "byteOffset": 72312,
      "componentType": 5126,
      "count": 63,
      "max": [
        0.5090929865837097,
        -1.0667999982833862,
        7.9091410636901855
      ],
      "min": [
        -0.5387060046195984,
        -1.2906099557876587,
        7.170094966888428
      ],
      "type": "VEC3"
    },
    {
      "bufferView": 2,
      "byteOffset": 73068,
      "componentType": 5126,
      "count": 63,
      "max": [
        0.6694635152816772,
        -0.6633222699165344,
        0.13550405204296112
      ],
      "min": [
        -0.7206022143363953,
        -0.9997856020927429,
        -0.5542894005775452
      ],
      "type": "VEC3"
    },
    {
      "bufferView": 1,
      "byteOffset": 48208,
      "componentType": 5126,
      "count": 63,
      "max": [
        0.9258000254631042,
        0.9452999830245972
      ],
      "min": [
        0.07029999792575836,
        0.1054999977350235
      ],
      "type": "VEC2"
    },
    {
      "bufferView": 1,
      "byteOffset": 48712,
      "componentType": 5126,
      "count": 63,
      "max": [
        0.9258000254631042,
        0.9452999830245972
      ],
      "min": [
        0.07029999792575836,
        0.1054999977350235
      ],
      "type": "VEC2"
    },
    {
      "bufferView": 0,
      "byteOffset": 31800,
      "componentType": 5125,
      "count": 144,
      "type": "SCALAR"
    },
    {
      "bufferView": 2,
      "byteOffset": 73824,
      "componentType": 5126,
      "count": 174,
      "max": [
        2.6082611083984375,
        1.37472403049469,
        5.078104019165039
      ],
      "min": [
        -2.571497917175293,
        -0.20419399440288544,
        3.849759101867676
      ],
      "type": "VEC3"
    },
    {
      "bufferView": 2,
      "byteOffset": 75912,
      "componentType": 5126,
      "count": 174,
      "max": [
        0.9925177693367004,
        0.9889142513275146,
        0.9934983253479004
      ],
      "min": [
        -0.9974170923233032,
        -0.9873690605163574,
        -0.9396910667419434
      ],
      "type": "VEC3"
    },
    {
      "bufferView": 1,
      "byteOffset": 49216,
      "componentType": 5126,
      "count": 174,
      "max": [
        0.0,
        0.0
      ],
      "min": [
        0.0,
        0.0
      ],
      "type": "VEC2"
    },
    {
      "bufferView": 1,
      "byteOffset": 50608,
      "componentType": 5126,
      "count": 174,
      "max": [
        0.0,
        0.0
      ],
      "min": [
        0.0,
        0.0
      ],
      "type": "VEC2"
    },
    {
      "bufferView": 0,
      "byteOffset": 32376,
      "componentType": 5125,
      "count": 492,
      "type": "SCALAR"
    },
    {
      "bufferView": 2,
      "byteOffset": 78000,
      "componentType": 5126,
      "count": 108,
      "max": [
        1.4059200286865234,
        -0.2894049882888794,
        8.538532257080078
      ],
      "min": [
        -1.4061169624328613,
        -1.2362509965896606,
        6.917109966278076
      ],
      "type": "VEC3"
    },
    {
      "bufferView": 2,
      "byteOffset": 79296,
      "componentType": 5126,
      "count": 108,
      "max": [
        0.8039098978042603,
        -0.4965146780014038,
        0.27720150351524353
      ],
      "min": [
        -0.8074750900268555,
        -0.9913938641548157,
        -0.4601815342903137
      ],
      "type": "VEC3"
    },
    {
      "bufferView": 1,
      "byteOffset": 52000,
      "componentType": 5126,
      "count": 108,
      "max": [
        0.0,
        0.0
      ],
      "min": [
        0.0,
        0.0
      ],
      "type": "VEC2"
    },
    {
      "bufferView": 1,
      "byteOffset": 52864,
      "componentType": 5126,
      "count": 108,
      "max": [
        0.0,
        0.0
      ],
      "min": [
        0.0,
        0.0
      ],
      "type": "VEC2"
    },
    {
      "bufferView": 0,
      "byteOffset": 34344,
      "componentType": 5125,
      "count": 282,
      "type": "SCALAR"
    }
  ],
  "asset": {
    "extras": {
      "author": "drewsdigitaldesigns (https://sketchfab.com/drewsdigitaldesigns)",
      "license": "CC-BY-4.0 (http://creativecommons.org/licenses/by/4.0/)",
      "source": "https://sketchfab.com/3d-models/amy-rose-84119c60c1ca4263a2304c79efc9cd7d",
      "title": "Amy Rose"
    },
    "generator": "Sketchfab-14.48.0",
    "version": "2.0"
  },
  "bufferViews": [
    {
      "buffer": 0,
      "byteLength": 35472,
      "name": "floatBufferViews",
      "target": 34963
    },
    {
      "buffer": 0,
      "byteLength": 53728,
      "byteOffset": 35472,
      "byteStride": 8,
      "name": "floatBufferViews",
      "target": 34962
    },
    {
      "buffer": 0,
      "byteLength": 80592,
      "byteOffset": 89200,
      "byteStride": 12,
      "name": "floatBufferViews",
      "target": 34962
    }
  ],
  "buffers": [
    {
      "byteLength": 169792,
      "uri": "scene.bin"
    }
  ],
  "extensionsRequired": [
    "KHR_materials_pbrSpecularGlossiness"
  ],
  "extensionsUsed": [
    "KHR_materials_pbrSpecularGlossiness"
  ],
  "images": [
    {
      "uri": "textures/Tex_0003_0_dds.001_diffuse.png"
    },
    {
      "uri": "textures/Tex_0004_0_dds.001_diffuse.png"
    },
    {
      "uri": "textures/Tex_0005_0_dds.001_diffuse.png"
    },
    {
      "uri": "textures/Tex_0006_0_dds.001_diffuse.png"
    },
    {
      "uri": "textures/Tex_0007_0_dds.001_diffuse.png"
    },
    {
      "uri": "textures/Tex_0008_0_dds.001_diffuse.png"
    }
  ],
  "materials": [
    {
      "doubleSided": true,
      "extensions": {
        "KHR_materials_pbrSpecularGlossiness": {
          "diffuseFactor": [
            1.0,
            1.0,
            1.0,
            1.0
          ],
          "diffuseTexture": {
            "index": 0
          },
          "glossinessFactor": 1.0,
          "specularFactor": [
            0.0,
            0.0,
            0.0
          ]
        }
      },
      "name": "Tex_0003_0_dds.001"
    },
    {
      "doubleSided": true,
      "emissiveTexture": {
        "index": 1
      },
      "extensions": {
        "KHR_materials_pbrSpecularGlossiness": {
          "diffuseFactor": [
            1.0,
            1.0,
            1.0,
            1.0
          ],
          "diffuseTexture": {
            "index": 1
          },
          "glossinessFactor": 0.0,
          "specularFactor": [
            0.0,
            0.0,
            0.0
          ]
        }
      },
      "name": "Tex_0004_0_dds.001"
    },
    {
      "doubleSided": true,
      "emissiveTexture": {
        "index": 2
      },
      "extensions": {
        "KHR_materials_pbrSpecularGlossiness": {
          "diffuseFactor": [
            1.0,
            1.0,
            1.0,
            1.0
          ],
          "diffuseTexture": {
            "index": 2
          },
          "glossinessFactor": 0.0,
          "specularFactor": [
            0.0,
            0.0,
            0.0
          ]
        }
      },
      "name": "Tex_0005_0_dds.001"
    },
    {
      "doubleSided": true,
      "emissiveTexture": {
        "index": 3
      },
      "extensions": {
        "KHR_materials_pbrSpecularGlossiness": {
          "diffuseFactor": [
            1.0,
            1.0,
            1.0,
            1.0
          ],
          "diffuseTexture": {
            "index": 3
          },
          "glossinessFactor": 0.0,
          "specularFactor": [
            0.0,
            0.0,
            0.0
          ]
        }
      },
      "name": "Tex_0006_0_dds.001"
    },
    {
      "doubleSided": true,
      "emissiveTexture": {
        "index": 4
      },
      "extensions": {
        "KHR_materials_pbrSpecularGlossiness": {
          "diffuseFactor": [
            1.0,
            1.0,
            1.0,
            1.0
          ],
          "diffuseTexture": {
            "index": 4
          },
          "glossinessFactor": 0.0,
          "specularFactor": [
            0.0,
            0.0,
            0.0
          ]
        }
      },
      "name": "Tex_0007_0_dds.001"
    },
    {
      "doubleSided": true,
      "emissiveTexture": {
        "index": 5
      },
      "extensions": {
        "KHR_materials_pbrSpecularGlossiness": {
          "diffuseFactor": [
            1.0,
            1.0,
            1.0,
            1.0
          ],
          "diffuseTexture": {
            "index": 5
          },
          "glossinessFactor": 0.0,
          "specularFactor": [
            0.0,
            0.0,
            0.0
          ]
        }
      },
      "name": "Tex_0008_0_dds.001"
    }
  ],
  "meshes": [
    {
      "name": "Object_0",
      "primitives": [
        {
          "attributes": {
            "NORMAL": 1,
            "POSITION": 0,
            "TEXCOORD_0": 2,
            "TEXCOORD_1": 3
          },
          "indices": 4,
          "material": 0,
          "mode": 4
        }
      ]
    },
    {
      "name": "Object_1",
      "primitives": [
        {
          "attributes": {
            "NORMAL": 6,
            "POSITION": 5,
            "TEXCOORD_0": 7,
            "TEXCOORD_1": 8
          },
          "indices": 9,
          "material": 1,
          "mode": 4
        }
      ]
    },
    {
      "name": "Object_2",
      "primitives": [
        {
          "attributes": {
            "NORMAL": 11,
            "POSITION": 10,
            "TEXCOORD_0": 12,
            "TEXCOORD_1": 13
          },
          "indices": 14,
          "material": 2,
          "mode": 4
        }
      ]
    },
    {
      "name": "Object_3",
      "primitives": [
        {
          "attributes": {
            "NORMAL": 16,
            "POSITION": 15,
            "TEXCOORD_0": 17,
            "TEXCOORD_1": 18
          },
          "indices": 19,
          "material": 3,
          "mode": 4
        }
      ]
    },
    {
      "name": "Object_4",
      "primitives": [
        {
          "attributes": {
            "NORMAL": 21,
            "POSITION": 20,
            "TEXCOORD_0": 22,
            "TEXCOORD_1": 23
          },
          "indices": 24,
          "material": 4,
          "mode": 4
        }
      ]
    },
    {
      "name": "Object_5",
      "primitives": [
        {
          "attributes": {
            "NORMAL": 26,
            "POSITION": 25,
            "TEXCOORD_0": 27,
            "TEXCOORD_1": 28
          },
          "indices": 29,
          "material": 5,
          "mode": 4
        }
      ]
    }
  ],
  "nodes": [
    {
      "children": [
        1
      ],
      "matrix": [
        1.0,
        1.6081226229577292e-16,
        5.356124287284811e-32,
        0.0,
        -8.006836424271825e-33,
        3.828568672208042e-16,
        -1.0,
        0.0,
        -1.6081226229577292e-16,
        1.0,
        3.828568672208042e-16,
        0.0,
        0.0,
        0.0,
        0.0,
        1.0
      ],
      "name": "Sketchfab_model"
    },
    {
      "children": [
        2
      ],
      "name": "root"
    },
    {
      "children": [
        3
      ],
      "matrix": [
        1.0,
        0.0,
        0.0,
        0.0,
        0.0,
        2.220446049250313e-16,
        1.0,
        0.0,
        0.0,
        -1.0,
        2.220446049250313e-16,
        0.0,
        0.0,
        0.0,
        0.0,
        1.0
      ],
      "name": "GLTF_SceneRootNode"
    },
    {
      "children": [
        4
      ],
      "matrix": [
        1.0,
        0.0,
        0.0,
        0.0,
        0.0,
        2.220446049250313e-16,
        -1.0,
        0.0,
        0.0,
        1.0,
        2.220446049250313e-16,
        0.0,
        0.0,
        0.0,
        0.0,
        1.0
      ],
      "name": "Sketchfab_model_0"
    },
    {
      "children": [
        5,
        7,
        9,
        11,
        13,
        15
      ],
      "name": "Amy Rose.obj.cleaner.materialmerger.gles_1"
    },
    {
      "children": [
        6
      ],
      "name": "Object_2_2"
    },
    {
      "mesh": 0,
      "name": "Object_6"
    },
    {
      "children": [
        8
      ],
      "name": "Object_3_3"
    },
    {
      "mesh": 1,
      "name": "Object_8"
    },
    {
      "children": [
        10
      ],
      "name": "Object_4_4"
    },
    {
      "mesh": 2,
      "name": "Object_10"
    },
    {
      "children": [
        12
      ],
      "name": "Object_5_5"
    },
    {
      "mesh": 3,
      "name": "Object_12"
    },
    {
      "children": [
        14
      ],
      "name": "Object_6_6"
    },
    {
      "mesh": 4,
      "name": "Object_14"
    },
    {
      "children": [
        16
      ],
      "name": "Object_7_7"
    },
    {
      "mesh": 5,
      "name": "Object_16"
    }
  ],
  "samplers": [
    {
      "magFilter": 9729,
      "minFilter": 9987,
      "wrapS": 10497,
      "wrapT": 10497
    }
  ],
  "scene": 0,
  "scenes": [
    {
      "name": "Sketchfab_Scene",
      "nodes": [
        0
      ]
    }
  ],
  "textures": [
    {
      "sampler": 0,
      "source": 0
    },
    {
      "sampler": 0,
      "source": 1
    },
    {
      "sampler": 0,
      "source": 2
    },
    {
      "sampler": 0,
      "source": 3
    },
    {
      "sampler": 0,
      "source": 4
    },
    {
      "sampler": 0,
      "source": 5
    }
  ]
}
