{
  "accessors": [
    {
      "bufferView": 2,
      "componentType": 5126,
      "count": 81,
      "max": [
        1.3710999488830566,
        1.0302000045776367,
        4.092700004577637
      ],
      "min": [
        0.08789999783039093,
        -0.2467000037431717,
        3.137399911880493
      ],
      "type": "VEC3"
    },
    {
      "bufferView": 2,
      "byteOffset": 972,
      "componentType": 5126,
      "count": 81,
      "max": [
        0.9727023243904114,
        0.9994039535522461,
        0.9307880401611328
      ],
      "min": [
        -0.7261910438537598,
        -0.9574632048606873,
        -0.9695878624916077
      ],
      "type": "VEC3"
    },
    {
      "bufferView": 1,
      "componentType": 5126,
      "count": 81,
      "max": [
        0.583299994468689,
        0.7900999784469604
      ],
      "min": [
        0.25540000200271606,
        0.5194000005722046
      ],
      "type": "VEC2"
    },
    {
      "bufferView": 0,
      "componentType": 5125,
      "count": 411,
      "type": "SCALAR"
    },
    {
      "bufferView": 2,
      "byteOffset": 1944,
      "componentType": 5126,
      "count": 78,
      "max": [
        -0.6617000102996826,
        0.14239999651908875,
        4.8942999839782715
      ],
      "min": [
        -1.3415000438690186,
        -0.8460999727249146,
        4.011499881744385
      ],
      "type": "VEC3"
    },
    {
      "bufferView": 2,
      "byteOffset": 2880,
      "componentType": 5126,
      "count": 78,
      "max": [
        -0.5197098255157471,
        0.5379971861839294,
        0.1715991050004959
      ],
      "min": [
        -0.986945629119873,
        -0.62549889087677,
        -0.7732959985733032
      ],
      "type": "VEC3"
    },
    {
      "bufferView": 1,
      "byteOffset": 648,
      "componentType": 5126,
      "count": 78,
      "max": [
        0.7271999716758728,
        0.8912000060081482
      ],
      "min": [
        0.03840000182390213,
        0.2160000056028366
      ],
      "type": "VEC2"
    },
    {
      "bufferView": 0,
      "byteOffset": 1644,
      "componentType": 5125,
      "count": 372,
      "type": "SCALAR"
    },
    {
      "bufferView": 2,
      "byteOffset": 3816,
      "componentType": 5126,
      "count": 78,
      "max": [
        -0.0044999998062849045,
        -0.6883999705314636,
        5.150400161743164
      ],
      "min": [
        -1.0408999919891357,
        -1.2109999656677246,
        4.033899784088135
      ],
      "type": "VEC3"
    },
    {
      "bufferView": 2,
      "byteOffset": 4752,
      "componentType": 5126,
      "count": 78,
      "max": [
        0.5097181797027588,
        -0.631621241569519,
        0.47649136185646057
      ],
      "min": [
        -0.7311279773712158,
        -0.9981633424758911,
        -0.6948233842849731
      ],
      "type": "VEC3"
    },
    {
      "bufferView": 1,
      "byteOffset": 1272,
      "componentType": 5126,
      "count": 78,
      "max": [
        0.7552000284194946,
        0.79339998960495
      ],
      "min": [
        0.18719999492168427,
        0.23659999668598175
      ],
      "type": "VEC2"
    },
    {
      "bufferView": 0,
      "byteOffset": 3132,
      "componentType": 5125,
      "count": 372,
      "type": "SCALAR"
    },
    {
      "bufferView": 2,
      "byteOffset": 5688,
      "componentType": 5126,
      "count": 36,
      "max": [
        -0.12710000574588776,
        0.02810000069439411,
        4.719399929046631
      ],
      "min": [
        -1.3871999979019165,
        -1.3314000368118286,
        3.9823999404907227
      ],
      "type": "VEC3"
    },
    {
      "bufferView": 2,
      "byteOffset": 6120,
      "componentType": 5126,
      "count": 36,
      "max": [
        0.2528989315032959,
        0.2549039423465729,
        -0.14479637145996094
      ],
      "min": [
        -0.893631100654602,
        -0.9843752384185791,
        -0.9245865345001221
      ],
      "type": "VEC3"
    },
    {
      "bufferView": 1,
      "byteOffset": 1896,
      "componentType": 5126,
      "count": 36,
      "max": [
        0.9513000249862671,
        0.9300000071525574
      ],
      "min": [
        0.0215000007301569,
        0.011800000444054604
      ],
      "type": "VEC2"
    },
    {
      "bufferView": 0,
      "byteOffset": 4620,
      "componentType": 5125,
      "count": 102,
      "type": "SCALAR"
    },
    {
      "bufferView": 2,
      "byteOffset": 6552,
      "componentType": 5126,
      "count": 1216,
      "max": [
        2.264400005340576,
        0.90829998254776,
        6.6768999099731445
      ],
      "min": [
        -2.8304998874664307,
        -2.5987000465393066,
        2.5894999504089355
      ],
      "type": "VEC3"
    },
    {
      "bufferView": 2,
      "byteOffset": 21144,
      "componentType": 5126,
      "count": 1216,
      "max": [
        0.9994297027587891,
        0.995184063911438,
        0.9980734586715698
      ],
      "min": [
        -0.9980167746543884,
        -0.99953693151474,
        -0.9995512366294861
      ],
      "type": "VEC3"
    },
    {
      "bufferView": 1,
      "byteOffset": 2184,
      "componentType": 5126,
      "count": 1216,
      "max": [
        0.9997000098228455,
        0.9984999895095825
      ],
      "min": [
        0.09780000150203705,
        0.003700000001117587
      ],
      "type": "VEC2"
    },
    {
      "bufferView": 0,
      "byteOffset": 5028,
      "componentType": 5125,
      "count": 6414,
      "type": "SCALAR"
    },
    {
      "bufferView": 2,
      "byteOffset": 35736,
      "componentType": 5126,
      "count": 26,
      "max": [
        0.28790000081062317,
        -0.34040001034736633,
        2.791300058364868
      ],
      "min": [
        -0.042399998754262924,
        -0.6639000177383423,
        2.555799961090088
      ],
      "type": "VEC3"
    },
    {
      "bufferView": 2,
      "byteOffset": 36048,
      "componentType": 5126,
      "count": 26,
      "max": [
        0.9761294722557068,
        0.9798712730407715,
        0.9943947792053223
      ],
      "min": [
        -0.9761294722557068,
        -0.9798712730407715,
        -0.10179848223924637
      ],
      "type": "VEC3"
    },
    {
      "bufferView": 1,
      "byteOffset": 11912,
      "componentType": 5126,
      "count": 26,
      "max": [
        1.0,
        1.0
      ],
      "min": [
        0.0,
        0.0
      ],
      "type": "VEC2"
    },
    {
      "bufferView": 0,
      "byteOffset": 30684,
      "componentType": 5125,
      "count": 66,
      "type": "SCALAR"
    },
    {
      "bufferView": 2,
      "byteOffset": 36360,
      "componentType": 5126,
      "count": 156,
      "max": [
        -0.004699999932199717,
        0.14159999787807465,
        5.151199817657471
      ],
      "min": [
        -1.3372000455856323,
        -1.2063000202178955,
        4.013199806213379
      ],
      "type": "VEC3"
    },
    {
      "bufferView": 2,
      "byteOffset": 38232,
      "componentType": 5126,
      "count": 156,
      "max": [
        0.510495126247406,
        0.5392001271247864,
        0.475291907787323
      ],
      "min": [
        -0.9867949485778809,
        -0.9983041882514954,
        -0.7731001377105713
      ],
      "type": "VEC3"
    },
    {
      "bufferView": 1,
      "byteOffset": 12120,
      "componentType": 5126,
      "count": 156,
      "max": [
        2.13319993019104,
        1.940000057220459
      ],
      "min": [
        -1.1247999668121338,
        -0.17470000684261322
      ],
      "type": "VEC2"
    },
    {
      "bufferView": 0,
      "byteOffset": 30948,
      "componentType": 5125,
      "count": 744,
      "type": "SCALAR"
    },
    {
      "bufferView": 2,
      "byteOffset": 40104,
      "componentType": 5126,
      "count": 662,
      "max": [
        2.663800001144409,
        2.699899911880493,
        7.311399936676025
      ],
      "min": [
        -1.972499966621399,
        -1.6088999509811401,
        3.936199903488159
      ],
      "type": "VEC3"
    },
    {
      "bufferView": 2,
      "byteOffset": 48048,
      "componentType": 5126,
      "count": 662,
      "max": [
        0.9419171810150146,
        0.9790666103363037,
        0.990726113319397
      ],
      "min": [
        -0.9997994303703308,
        -0.9931163191795349,
        -0.9951504468917847
      ],
      "type": "VEC3"
    },
    {
      "bufferView": 1,
      "byteOffset": 13368,
      "componentType": 5126,
      "count": 662,
      "max": [
        0.9991000294685364,
        0.9962000250816345
      ],
      "min": [
        0.005100000184029341,
        0.0006000000284984708
      ],
      "type": "VEC2"
    },
    {
      "bufferView": 0,
      "byteOffset": 33924,
      "componentType": 5125,
      "count": 3480,
      "type": "SCALAR"
    },
    {
      "bufferView": 2,
      "byteOffset": 55992,
      "componentType": 5126,
      "count": 384,
      "max": [
        0.23229999840259552,
        0.2597000002861023,
        6.049099922180176
      ],
      "min": [
        -1.8767000436782837,
        -1.5235999822616577,
        3.853300094604492
      ],
      "type": "VEC3"
    },
    {
      "bufferView": 2,
      "byteOffset": 60600,
      "componentType": 5126,
      "count": 384,
      "max": [
        0.9819753170013428,
        0.9629323482513428,
        0.9977091550827026
      ],
      "min": [
        -0.9897638559341431,
        -0.9989729523658752,
        -0.9977586269378662
      ],
      "type": "VEC3"
    },
    {
      "bufferView": 1,
      "byteOffset": 18664,
      "componentType": 5126,
      "count": 384,
      "max": [
        0.7616999745368958,
        0.9901999831199646
      ],
      "min": [
        0.013199999928474426,
        0.001500000013038516
      ],
      "type": "VEC2"
    },
    {
      "bufferView": 0,
      "byteOffset": 47844,
      "componentType": 5125,
      "count": 1752,
      "type": "SCALAR"
    },
    {
      "bufferView": 2,
      "byteOffset": 65208,
      "componentType": 5126,
      "count": 754,
      "max": [
        0.701200008392334,
        0.8676999807357788,
        6.534599781036377
      ],
      "min": [
        -1.6155999898910522,
        -1.4972000122070313,
        2.0208001136779785
      ],
      "type": "VEC3"
    },
    {
      "bufferView": 2,
      "byteOffset": 74256,
      "componentType": 5126,
      "count": 754,
      "max": [
        0.994736909866333,
        0.9981490969657898,
        0.9973442554473877
      ],
      "min": [
        -0.99658203125,
        -0.9976178407669067,
        -0.9993793964385986
      ],
      "type": "VEC3"
    },
    {
      "bufferView": 1,
      "byteOffset": 21736,
      "componentType": 5126,
      "count": 754,
      "max": [
        0.9986000061035156,
        1.0753999948501587
      ],
      "min": [
        -0.18289999663829803,
        -0.26330000162124634
      ],
      "type": "VEC2"
    },
    {
      "bufferView": 0,
      "byteOffset": 54852,
      "componentType": 5125,
      "count": 2697,
      "type": "SCALAR"
    },
    {
      "bufferView": 2,
      "byteOffset": 83304,
      "componentType": 5126,
      "count": 823,
      "max": [
        0.7615000009536743,
        2.365799903869629,
        3.3554999828338623
      ],
      "min": [
        -1.791100025177002,
        -1.9407999515533447,
        0.147599995136261
      ],
      "type": "VEC3"
    },
    {
      "bufferView": 2,
      "byteOffset": 93180,
      "componentType": 5126,
      "count": 823,
      "max": [
        0.9998929500579834,
        0.9974691867828369,
        0.9968406558036804
      ],
      "min": [
        -0.9930357336997986,
        -0.9997127652168274,
        -0.9970418214797974
      ],
      "type": "VEC3"
    },
    {
      "bufferView": 1,
      "byteOffset": 27768,
      "componentType": 5126,
      "count": 823,
      "max": [
        0.9851999878883362,
        1.3976000547409058
      ],
      "min": [
        0.007199999876320362,
        0.003100000089034438
      ],
      "type": "VEC2"
    },
    {
      "bufferView": 0,
      "byteOffset": 65640,
      "componentType": 5125,
      "count": 2820,
      "type": "SCALAR"
    }
  ],
  "asset": {
    "extras": {
      "author": "projectmgame (https://sketchfab.com/projectmgame)",
      "license": "CC-BY-4.0 (http://creativecommons.org/licenses/by/4.0/)",
      "source": "https://sketchfab.com/3d-models/jet-set-sonic-80fd02f68bb1460d88ff8011771af3e5",
      "title": "Jet Set Sonic"
    },
    "generator": "Sketchfab-12.66.0",
    "version": "2.0"
  },
  "bufferViews": [
    {
      "buffer": 0,
      "byteLength": 76920,
      "name": "floatBufferViews",
      "target": 34963
    },
    {
      "buffer": 0,
      "byteLength": 34352,
      "byteOffset": 76920,
      "byteStride": 8,
      "name": "floatBufferViews",
      "target": 34962
    },
    {
      "buffer": 0,
      "byteLength": 103056,
      "byteOffset": 111272,
      "byteStride": 12,
      "name": "floatBufferViews",
      "target": 34962
    }
  ],
  "buffers": [
    {
      "byteLength": 214328,
      "uri": "scene.bin"
    }
  ],
  "images": [
    {
      "uri": "textures/BodyEnv_baseColor.png"
    },
    {
      "uri": "textures/material_baseColor.png"
    },
    {
      "uri": "textures/HeadENv_baseColor.png"
    },
    {
      "uri": "textures/Material__25_baseColor.png"
    },
    {
      "uri": "textures/Shirt_Headphones_baseColor.png"
    },
    {
      "uri": "textures/ShoeEnvr_baseColor.png"
    },
    {
      "uri": "textures/ShoeEnvr_emissive.png"
    },
    {
      "uri": "textures/VISOR_baseColor.png"
    },
    {
      "uri": "textures/VISOR_emissive.png"
    }
  ],
  "materials": [
    {
      "doubleSided": true,
      "name": "BodyEnv",
      "pbrMetallicRoughness": {
        "baseColorTexture": {
          "index": 0
        },
        "metallicFactor": 0.0,
        "roughnessFactor": 0.6
      }
    },
    {
      "doubleSided": true,
      "name": "Bodynorm",
      "pbrMetallicRoughness": {
        "baseColorTexture": {
          "index": 0
        },
        "metallicFactor": 0.0,
        "roughnessFactor": 0.6
      }
    },
    {
      "alphaMode": "BLEND",
      "doubleSided": true,
      "name": "material",
      "pbrMetallicRoughness": {
        "baseColorTexture": {
          "index": 1
        },
        "metallicFactor": 0.0,
        "roughnessFactor": 0.6
      }
    },
    {
      "alphaMode": "BLEND",
      "doubleSided": true,
      "name": "EyeL",
      "pbrMetallicRoughness": {
        "baseColorFactor": [
          0.8,
          0.8,
          0.8,
          0.0
        ],
        "metallicFactor": 0.0,
        "roughnessFactor": 0.6
      }
    },
    {
      "doubleSided": true,
      "name": "HeadENv",
      "pbrMetallicRoughness": {
        "baseColorTexture": {
          "index": 2
        },
        "metallicFactor": 0.0,
        "roughnessFactor": 0.6
      }
    },
    {
      "doubleSided": true,
      "name": "HeadNormal",
      "pbrMetallicRoughness": {
        "baseColorTexture": {
          "index": 2
        },
        "metallicFactor": 0.0,
        "roughnessFactor": 0.6
      }
    },
    {
      "doubleSided": true,
      "name": "Material__25",
      "pbrMetallicRoughness": {
        "baseColorTexture": {
          "index": 3
        },
        "metallicFactor": 0.0,
        "roughnessFactor": 0.6
      }
    },
    {
      "doubleSided": true,
      "name": "Material__26",
      "pbrMetallicRoughness": {
        "baseColorTexture": {
          "index": 3
        },
        "metallicFactor": 0.0,
        "roughnessFactor": 0.6
      }
    },
    {
      "doubleSided": true,
      "name": "Shirt_Headphones",
      "pbrMetallicRoughness": {
        "baseColorTexture": {
          "index": 4
        },
        "metallicFactor": 0.0,
        "roughnessFactor": 0.6
      }
    },
    {
      "doubleSided": true,
      "emissiveFactor": [
        0.47,
        0.47,
        0.47
      ],
      "emissiveTexture": {
        "index": 6
      },
      "name": "ShoeEnvr",
      "pbrMetallicRoughness": {
        "baseColorTexture": {
          "index": 5
        },
        "metallicFactor": 0.0,
        "roughnessFactor": 0.6
      }
    },
    {
      "alphaMode": "BLEND",
      "doubleSided": true,
      "emissiveFactor": [
        0.25,
        0.25,
        0.25
      ],
      "emissiveTexture": {
        "index": 8
      },
      "name": "VISOR",
      "pbrMetallicRoughness": {
        "baseColorFactor": [
          1.0,
          1.0,
          1.0,
          0.87
        ],
        "baseColorTexture": {
          "index": 7
        },
        "metallicFactor": 0.0,
        "roughnessFactor": 0.6
      }
    }
  ],
  "meshes": [
    {
      "name": "Object_0",
      "primitives": [
        {
          "attributes": {
            "NORMAL": 1,
            "POSITION": 0,
            "TEXCOORD_0": 2
          },
          "indices": 3,
          "material": 0,
          "mode": 4
        }
      ]
    },
    {
      "name": "Object_1",
      "primitives": [
        {
          "attributes": {
            "NORMAL": 5,
            "POSITION": 4,
            "TEXCOORD_0": 6
          },
          "indices": 7,
          "material": 6,
          "mode": 4
        }
      ]
    },
    {
      "name": "Object_2",
      "primitives": [
        {
          "attributes": {
            "NORMAL": 9,
            "POSITION": 8,
            "TEXCOORD_0": 10
          },
          "indices": 11,
          "material": 7,
          "mode": 4
        }
      ]
    },
    {
      "name": "Object_3",
      "primitives": [
        {
          "attributes": {
            "NORMAL": 13,
            "POSITION": 12,
            "TEXCOORD_0": 14
          },
          "indices": 15,
          "material": 10,
          "mode": 4
        }
      ]
    },
    {
      "name": "Object_4",
      "primitives": [
        {
          "attributes": {
            "NORMAL": 17,
            "POSITION": 16,
            "TEXCOORD_0": 18
          },
          "indices": 19,
          "material": 1,
          "mode": 4
        }
      ]
    },
    {
      "name": "Object_5",
      "primitives": [
        {
          "attributes": {
            "NORMAL": 21,
            "POSITION": 20,
            "TEXCOORD_0": 22
          },
          "indices": 23,
          "material": 2,
          "mode": 4
        }
      ]
    },
    {
      "name": "Object_6",
      "primitives": [
        {
          "attributes": {
            "NORMAL": 25,
            "POSITION": 24,
            "TEXCOORD_0": 26
          },
          "indices": 27,
          "material": 3,
          "mode": 4
        }
      ]
    },
    {
      "name": "Object_7",
      "primitives": [
        {
          "attributes": {
            "NORMAL": 29,
            "POSITION": 28,
            "TEXCOORD_0": 30
          },
          "indices": 31,
          "material": 4,
          "mode": 4
        }
      ]
    },
    {
      "name": "Object_8",
      "primitives": [
        {
          "attributes": {
            "NORMAL": 33,
            "POSITION": 32,
            "TEXCOORD_0": 34
          },
          "indices": 35,
          "material": 5,
          "mode": 4
        }
      ]
    },
    {
      "name": "Object_9",
      "primitives": [
        {
          "attributes": {
            "NORMAL": 37,
            "POSITION": 36,
            "TEXCOORD_0": 38
          },
          "indices": 39,
          "material": 8,
          "mode": 4
        }
      ]
    },
    {
      "name": "Object_10",
      "primitives": [
        {
          "attributes": {
            "NORMAL": 41,
            "POSITION": 40,
            "TEXCOORD_0": 42
          },
          "indices": 43,
          "material": 9,
          "mode": 4
        }
      ]
    }
  ],
  "nodes": [
    {
      "children": [
        1
      ],
      "matrix": [
        1.0,
        0.0,
        0.0,
        0.0,
        0.0,
        2.220446049250313e-16,
        -1.0,
        0.0,
        0.0,
        1.0,
        2.220446049250313e-16,
        0.0,
        0.0,
        0.0,
        0.0,
        1.0
      ],
      "name": "Sketchfab_model"
    },
    {
      "children": [
        2,
        3,
        4,
        5,
        6,
        7,
        8,
        9,
        10,
        11,
        12
      ],
      "name": "pose.obj.cleaner"
    },
    {
      "mesh": 0,
      "name": "Object_2"
    },
    {
      "mesh": 1,
      "name": "Object_3"
    },
    {
      "mesh": 2,
      "name": "Object_4"
    },
    {
      "mesh": 3,
      "name": "Object_5"
    },
    {
      "mesh": 4,
      "name": "Object_6"
    },
    {
      "mesh": 5,
      "name": "Object_7"
    },
    {
      "mesh": 6,
      "name": "Object_8"
    },
    {
      "mesh": 7,
      "name": "Object_9"
    },
    {
      "mesh": 8,
      "name": "Object_10"
    },
    {
      "mesh": 9,
      "name": "Object_11"
    },
    {
      "mesh": 10,
      "name": "Object_12"
    }
  ],
  "samplers": [
    {
      "magFilter": 9729,
      "minFilter": 9987,
      "wrapS": 10497,
      "wrapT": 10497
    }
  ],
  "scene": 0,
  "scenes": [
    {
      "name": "Sketchfab_Scene",
      "nodes": [
        0
      ]
    }
  ],
  "textures": [
    {
      "sampler": 0,
      "source": 0
    },
    {
      "sampler": 0,
      "source": 1
    },
    {
      "sampler": 0,
      "source": 2
    },
    {
      "sampler": 0,
      "source": 3
    },
    {
      "sampler": 0,
      "source": 4
    },
    {
      "sampler": 0,
      "source": 5
    },
    {
      "sampler": 0,
      "source": 6
    },
    {
      "sampler": 0,
      "source": 7
    },
    {
      "sampler": 0,
      "source": 8
    }
  ]
}
