{
  "accessors": [
    {
      "bufferView": 2,
      "componentType": 5126,
      "count": 10411,
      "max": [
        0.7134320139884949,
        2.080780029296875,
        0.5044869780540466
      ],
      "min": [
        -0.43587398529052734,
        0.2532089948654175,
        -0.5232359766960144
      ],
      "type": "VEC3"
    },
    {
      "bufferView": 2,
      "byteOffset": 124932,
      "componentType": 5126,
      "count": 10411,
      "max": [
        0.99997478723526,
        0.9997574687004089,
        0.9995948672294617
      ],
      "min": [
        -0.9998541474342346,
        -0.9999407529830933,
        -0.9999175071716309
      ],
      "type": "VEC3"
    },
    {
      "bufferView": 1,
      "componentType": 5126,
      "count": 10411,
      "max": [
        0.9990649819374084,
        0.9992750287055969
      ],
      "min": [
        0.0019531298894435167,
        0.003022250020876527
      ],
      "type": "VEC2"
    },
    {
      "bufferView": 0,
      "componentType": 5125,
      "count": 40560,
      "type": "SCALAR"
    },
    {
      "bufferView": 2,
      "byteOffset": 249864,
      "componentType": 5126,
      "count": 8413,
      "max": [
        0.6679819822311401,
        2.0745699405670166,
        0.5064929723739624
      ],
      "min": [
        -0.4365150034427643,
        0.239655002951622,
        -0.6398590207099915
      ],
      "type": "VEC3"
    },
    {
      "bufferView": 2,
      "byteOffset": 350820,
      "componentType": 5126,
      "count": 8413,
      "max": [
        0.9999353289604187,
        0.9995238780975342,
        0.999954879283905
      ],
      "min": [
        -0.9995715022087097,
        -0.9999778866767883,
        -0.999937891960144
      ],
      "type": "VEC3"
    },
    {
      "bufferView": 3,
      "componentType": 5126,
      "count": 8413,
      "max": [
        0.9998584985733032,
        0.9998717904090881,
        0.9999306797981262,
        1.0
      ],
      "min": [
        -0.9999644160270691,
        -0.9998756051063538,
        -0.9999680519104004,
        -1.0
      ],
      "type": "VEC4"
    },
    {
      "bufferView": 1,
      "byteOffset": 83288,
      "componentType": 5126,
      "count": 8413,
      "max": [
        0.9984920024871826,
        0.999176025390625
      ],
      "min": [
        0.0019531298894435167,
        0.001251220004633069
      ],
      "type": "VEC2"
    },
    {
      "bufferView": 0,
      "byteOffset": 162240,
      "componentType": 5125,
      "count": 37920,
      "type": "SCALAR"
    },
    {
      "bufferView": 2,
      "byteOffset": 451776,
      "componentType": 5126,
      "count": 746,
      "max": [
        0.44374901056289673,
        2.0392301082611084,
        0.13844099640846252
      ],
      "min": [
        -0.2762160003185272,
        1.8265299797058105,
        -0.0029217200353741646
      ],
      "type": "VEC3"
    },
    {
      "bufferView": 2,
      "byteOffset": 460728,
      "componentType": 5126,
      "count": 746,
      "max": [
        0.8207928538322449,
        0.9870402216911316,
        0.9984312057495117
      ],
      "min": [
        -0.6930400729179382,
        -0.996149480342865,
        -0.999998152256012
      ],
      "type": "VEC3"
    },
    {
      "bufferView": 1,
      "byteOffset": 150592,
      "componentType": 5126,
      "count": 746,
      "max": [
        0.9799410104751587,
        0.9807239770889282
      ],
      "min": [
        0.017774099484086037,
        0.024270499125123024
      ],
      "type": "VEC2"
    },
    {
      "bufferView": 0,
      "byteOffset": 313920,
      "componentType": 5125,
      "count": 3660,
      "type": "SCALAR"
    },
    {
      "bufferView": 2,
      "byteOffset": 469680,
      "componentType": 5126,
      "count": 148,
      "max": [
        0.7151209712028503,
        0.24431900680065155,
        0.7151209712028503
      ],
      "min": [
        -0.7151209712028503,
        0.0,
        -0.7151209712028503
      ],
      "type": "VEC3"
    },
    {
      "bufferView": 2,
      "byteOffset": 471456,
      "componentType": 5126,
      "count": 148,
      "max": [
        0.7945948839187622,
        1.0,
        0.7945948839187622
      ],
      "min": [
        -0.7945948839187622,
        -1.0,
        -0.7945948839187622
      ],
      "type": "VEC3"
    },
    {
      "bufferView": 1,
      "byteOffset": 156560,
      "componentType": 5126,
      "count": 148,
      "max": [
        1.0135899782180786,
        1.0135899782180786
      ],
      "min": [
        0.0,
        -0.020433900877833366
      ],
      "type": "VEC2"
    },
    {
      "bufferView": 0,
      "byteOffset": 328560,
      "componentType": 5125,
      "count": 420,
      "type": "SCALAR"
    },
    {
      "bufferView": 2,
      "byteOffset": 473232,
      "componentType": 5126,
      "count": 10411,
      "max": [
        0.7134320139884949,
        2.080780029296875,
        0.5044869780540466
      ],
      "min": [
        -0.43587398529052734,
        0.2532089948654175,
        -0.5232359766960144
      ],
      "type": "VEC3"
    },
    {
      "bufferView": 2,
      "byteOffset": 598164,
      "componentType": 5126,
      "count": 10411,
      "max": [
        0.99997478723526,
        0.9997574687004089,
        0.9995948672294617
      ],
      "min": [
        -0.9998541474342346,
        -0.9999407529830933,
        -0.9999175071716309
      ],
      "type": "VEC3"
    },
    {
      "bufferView": 1,
      "byteOffset": 157744,
      "componentType": 5126,
      "count": 10411,
      "max": [
        0.9990649819374084,
        0.9992750287055969
      ],
      "min": [
        0.0019531298894435167,
        0.003022250020876527
      ],
      "type": "VEC2"
    },
    {
      "bufferView": 0,
      "byteOffset": 330240,
      "componentType": 5125,
      "count": 40560,
      "type": "SCALAR"
    },
    {
      "bufferView": 2,
      "byteOffset": 723096,
      "componentType": 5126,
      "count": 8413,
      "max": [
        0.6679819822311401,
        2.0745699405670166,
        0.5064929723739624
      ],
      "min": [
        -0.4365150034427643,
        0.239655002951622,
        -0.6398590207099915
      ],
      "type": "VEC3"
    },
    {
      "bufferView": 2,
      "byteOffset": 824052,
      "componentType": 5126,
      "count": 8413,
      "max": [
        0.9999353289604187,
        0.9995238780975342,
        0.999954879283905
      ],
      "min": [
        -0.9995715022087097,
        -0.9999778866767883,
        -0.999937891960144
      ],
      "type": "VEC3"
    },
    {
      "bufferView": 3,
      "byteOffset": 134608,
      "componentType": 5126,
      "count": 8413,
      "max": [
        0.9998584985733032,
        0.9998717904090881,
        0.9999306797981262,
        1.0
      ],
      "min": [
        -0.9999644160270691,
        -0.9998756051063538,
        -0.9999680519104004,
        -1.0
      ],
      "type": "VEC4"
    },
    {
      "bufferView": 1,
      "byteOffset": 241032,
      "componentType": 5126,
      "count": 8413,
      "max": [
        0.9984920024871826,
        0.999176025390625
      ],
      "min": [
        0.0019531298894435167,
        0.001251220004633069
      ],
      "type": "VEC2"
    },
    {
      "bufferView": 0,
      "byteOffset": 492480,
      "componentType": 5125,
      "count": 37920,
      "type": "SCALAR"
    },
    {
      "bufferView": 2,
      "byteOffset": 925008,
      "componentType": 5126,
      "count": 746,
      "max": [
        0.44374901056289673,
        2.0392301082611084,
        0.13844099640846252
      ],
      "min": [
        -0.2762160003185272,
        1.8265299797058105,
        -0.0029217200353741646
      ],
      "type": "VEC3"
    },
    {
      "bufferView": 2,
      "byteOffset": 933960,
      "componentType": 5126,
      "count": 746,
      "max": [
        0.8207928538322449,
        0.9870402216911316,
        0.9984312057495117
      ],
      "min": [
        -0.6930400729179382,
        -0.996149480342865,
        -0.999998152256012
      ],
      "type": "VEC3"
    },
    {
      "bufferView": 1,
      "byteOffset": 308336,
      "componentType": 5126,
      "count": 746,
      "max": [
        0.9799410104751587,
        0.9807239770889282
      ],
      "min": [
        0.017774099484086037,
        0.024270499125123024
      ],
      "type": "VEC2"
    },
    {
      "bufferView": 0,
      "byteOffset": 644160,
      "componentType": 5125,
      "count": 3660,
      "type": "SCALAR"
    },
    {
      "bufferView": 2,
      "byteOffset": 942912,
      "componentType": 5126,
      "count": 148,
      "max": [
        0.7151209712028503,
        0.24431900680065155,
        0.7151209712028503
      ],
      "min": [
        -0.7151209712028503,
        0.0,
        -0.7151209712028503
      ],
      "type": "VEC3"
    },
    {
      "bufferView": 2,
      "byteOffset": 944688,
      "componentType": 5126,
      "count": 148,
      "max": [
        0.7945948839187622,
        1.0,
        0.7945948839187622
      ],
      "min": [
        -0.7945948839187622,
        -1.0,
        -0.7945948839187622
      ],
      "type": "VEC3"
    },
    {
      "bufferView": 1,
      "byteOffset": 314304,
      "componentType": 5126,
      "count": 148,
      "max": [
        1.0135899782180786,
        1.0135899782180786
      ],
      "min": [
        0.0,
        -0.020433900877833366
      ],
      "type": "VEC2"
    },
    {
      "bufferView": 0,
      "byteOffset": 658800,
      "componentType": 5125,
      "count": 420,
      "type": "SCALAR"
    }
  ],
  "asset": {
    "extras": {
      "author": "#3D $Resource$ (https://sketchfab.com/lopuh22721)",
      "license": "CC-BY-4.0 (http://creativecommons.org/licenses/by/4.0/)",
      "source": "https://sketchfab.com/3d-models/dr-eggman-3d43b8f958294c73a044888baa8f30b5",
      "title": "Dr Eggman"
    },
    "generator": "Sketchfab-12.97.0",
    "version": "2.0"
  },
  "bufferViews": [
    {
      "buffer": 0,
      "byteLength": 660480,
      "name": "floatBufferViews",
      "target": 34963
    },
    {
      "buffer": 0,
      "byteLength": 315488,
      "byteOffset": 660480,
      "byteStride": 8,
      "name": "floatBufferViews",
      "target": 34962
    },
    {
      "buffer": 0,
      "byteLength": 946464,
      "byteOffset": 975968,
      "byteStride": 12,
      "name": "floatBufferViews",
      "target": 34962
    },
    {
      "buffer": 0,
      "byteLength": 269216,
      "byteOffset": 1922432,
      "byteStride": 16,
      "name": "floatBufferViews",
      "target": 34962
    }
  ],
  "buffers": [
    {
      "byteLength": 2191648,
      "uri": "scene.bin"
    }
  ],
  "images": [
    {
      "uri": "textures/stu_chr_eggman_body_baseColor.png"
    },
    {
      "uri": "textures/stu_chr_eggman_metal_baseColor.png"
    },
    {
      "uri": "textures/stu_chr_eggman_metal_metallicRoughness.png"
    },
    {
      "uri": "textures/stu_chr_eggman_metal_normal.png"
    },
    {
      "uri": "textures/stu_chr_eggman_mustach_baseColor.png"
    }
  ],
  "materials": [
    {
      "doubleSided": true,
      "name": "stu_chr_eggman_body",
      "pbrMetallicRoughness": {
        "baseColorTexture": {
          "index": 0
        },
        "metallicFactor": 0.05,
        "roughnessFactor": 0.6
      }
    },
    {
      "doubleSided": true,
      "name": "stu_chr_eggman_metal",
      "normalTexture": {
        "index": 3
      },
      "pbrMetallicRoughness": {
        "baseColorTexture": {
          "index": 1
        },
        "metallicRoughnessTexture": {
          "index": 2
        },
        "roughnessFactor": 0.6
      }
    },
    {
      "doubleSided": true,
      "name": "stu_chr_eggman_mustach",
      "pbrMetallicRoughness": {
        "baseColorTexture": {
          "index": 4
        },
        "metallicFactor": 0.05,
        "roughnessFactor": 0.6
      }
    },
    {
      "doubleSided": true,
      "name": "stu_obj_base",
      "pbrMetallicRoughness": {
        "baseColorFactor": [
          0.0,
          0.1082923599594763,
          1.0,
          1.0
        ],
        "metallicFactor": 0.05,
        "roughnessFactor": 0.6
      }
    }
  ],
  "meshes": [
    {
      "name": "Object_0",
      "primitives": [
        {
          "attributes": {
            "NORMAL": 1,
            "POSITION": 0,
            "TEXCOORD_0": 2
          },
          "indices": 3,
          "material": 0,
          "mode": 4
        }
      ]
    },
    {
      "name": "Object_1",
      "primitives": [
        {
          "attributes": {
            "NORMAL": 5,
            "POSITION": 4,
            "TANGENT": 6,
            "TEXCOORD_0": 7
          },
          "indices": 8,
          "material": 1,
          "mode": 4
        }
      ]
    },
    {
      "name": "Object_2",
      "primitives": [
        {
          "attributes": {
            "NORMAL": 10,
            "POSITION": 9,
            "TEXCOORD_0": 11
          },
          "indices": 12,
          "material": 2,
          "mode": 4
        }
      ]
    },
    {
      "name": "Object_3",
      "primitives": [
        {
          "attributes": {
            "NORMAL": 14,
            "POSITION": 13,
            "TEXCOORD_0": 15
          },
          "indices": 16,
          "material": 3,
          "mode": 4
        }
      ]
    },
    {
      "name": "Object_4",
      "primitives": [
        {
          "attributes": {
            "NORMAL": 18,
            "POSITION": 17,
            "TEXCOORD_0": 19
          },
          "indices": 20,
          "material": 0,
          "mode": 4
        }
      ]
    },
    {
      "name": "Object_5",
      "primitives": [
        {
          "attributes": {
            "NORMAL": 22,
            "POSITION": 21,
            "TANGENT": 23,
            "TEXCOORD_0": 24
          },
          "indices": 25,
          "material": 1,
          "mode": 4
        }
      ]
    },
    {
      "name": "Object_6",
      "primitives": [
        {
          "attributes": {
            "NORMAL": 27,
            "POSITION": 26,
            "TEXCOORD_0": 28
          },
          "indices": 29,
          "material": 2,
          "mode": 4
        }
      ]
    },
    {
      "name": "Object_7",
      "primitives": [
        {
          "attributes": {
            "NORMAL": 31,
            "POSITION": 30,
            "TEXCOORD_0": 32
          },
          "indices": 33,
          "material": 3,
          "mode": 4
        }
      ]
    }
  ],
  "nodes": [
    {
      "children": [
        1
      ],
      "matrix": [
        1.0,
        0.0,
        0.0,
        0.0,
        0.0,
        2.220446049250313e-16,
        -1.0,
        0.0,
        0.0,
        1.0,
        2.220446049250313e-16,
        0.0,
        0.0,
        0.0,
        0.0,
        1.0
      ],
      "name": "Sketchfab_model"
    },
    {
      "children": [
        2
      ],
      "matrix": [
        1.0,
        0.0,
        0.0,
        0.0,
        0.0,
        -4.371139006309477e-08,
        0.999999999999999,
        0.0,
        0.0,
        -0.999999999999999,
        -4.371139006309477e-08,
        0.0,
        0.0,
        0.0,
        0.0,
        1.0
      ],
      "name": "Collada visual scene group"
    },
    {
      "children": [
        3,
        4,
        5,
        6,
        7,
        8,
        9,
        10
      ],
      "name": "Object_2"
    },
    {
      "mesh": 0,
      "name": "Object_3"
    },
    {
      "mesh": 1,
      "name": "Object_4"
    },
    {
      "mesh": 2,
      "name": "Object_5"
    },
    {
      "mesh": 3,
      "name": "Object_6"
    },
    {
      "mesh": 4,
      "name": "Object_7"
    },
    {
      "mesh": 5,
      "name": "Object_8"
    },
    {
      "mesh": 6,
      "name": "Object_9"
    },
    {
      "mesh": 7,
      "name": "Object_10"
    }
  ],
  "samplers": [
    {
      "magFilter": 9729,
      "minFilter": 9987,
      "wrapS": 10497,
      "wrapT": 10497
    }
  ],
  "scene": 0,
  "scenes": [
    {
      "name": "Sketchfab_Scene",
      "nodes": [
        0
      ]
    }
  ],
  "textures": [
    {
      "sampler": 0,
      "source": 0
    },
    {
      "sampler": 0,
      "source": 1
    },
    {
      "sampler": 0,
      "source": 2
    },
    {
      "sampler": 0,
      "source": 3
    },
    {
      "sampler": 0,
      "source": 4
    }
  ]
}
